<svg xmlns="http://www.w3.org/2000/svg" version="1.1" xmlns:xlink="http://www.w3.org/1999/xlink" xmlns:svgjs="http://svgjs.dev/svgjs" width="512px" height="512px"><svg xmlns="http://www.w3.org/2000/svg" xmlns:xlink="http://www.w3.org/1999/xlink" viewBox="0,0,256,256" width="512px" height="512px" fill-rule="nonzero"><defs><clipPath id="SvgjsClipPath1011"><path d="M0,256v-256h256l0,176.2274c-3.48384,-5.52515 -8.98731,-9.69813 -15.48,-11.3954c-5.56,-8.004 -14.62,-12.832 -24.52,-12.832c-11.588,0 -22.044,6.792 -26.948,17.028c-9.896,3 -17.052,12.232 -17.052,22.972c0,13.236 10.764,24 24,24h38c9.25179,0 17.39073,-4.85783 22,-12.15666v52.15666z" id="SvgjsPath1010" fill="none"></path></clipPath></defs><g transform=""><g fill="#3cb371" fill-rule="nonzero" stroke="none" stroke-width="1" stroke-linecap="butt" stroke-linejoin="miter" stroke-miterlimit="10" stroke-dasharray="" stroke-dashoffset="0" font-family="none" font-weight="none" font-size="none" text-anchor="none" style="mix-blend-mode: normal"><path d="M0,256v-256h256v256z" id="SvgjsPath1009"></path></g><g clip-path="url(#clip-1)" fill="none" fill-rule="nonzero" stroke="none" stroke-width="1" stroke-linecap="butt" stroke-linejoin="miter" stroke-miterlimit="10" stroke-dasharray="" stroke-dashoffset="0" font-family="none" font-weight="none" font-size="none" text-anchor="none" style="mix-blend-mode: normal"><g transform="translate(-2.4,0) scale(8,8)" fill="#ffffff"><path d="M2,7v18h28v-18zM4,9h24v14h-24zM6,11v10h3c1.654,0 3,-1.346 3,-3v-4c0,-1.654 -1.346,-3 -3,-3zM16,11c-1.103,0 -2,0.897 -2,2v6c0,1.103 0.897,2 2,2h2v-2h-2v-2h2v-2h-2v-2h2v-2zM19.69141,11l2.08398,9.02539c0.132,0.57 0.63961,0.97461 1.22461,0.97461c0.585,0 1.09261,-0.40461 1.22461,-0.97461l2.08398,-9.02539h-2.05273l-1.25586,5.43945l-1.25586,-5.43945zM8,13h1c0.552,0 1,0.448 1,1v4c0,0.552 -0.448,1 -1,1h-1z"></path></g></g><g fill="#ffffff" fill-rule="nonzero" stroke="none" stroke-width="1" stroke-linecap="butt" stroke-linejoin="miter" stroke-miterlimit="10" stroke-dasharray="" stroke-dashoffset="0" font-family="none" font-weight="none" font-size="none" text-anchor="none" style="mix-blend-mode: normal"><g transform="translate(180,160) scale(4,4)" id="SvgjsG1008"><path d="M13.5,12h-9.5c-2.206,0 -4,-1.794 -4,-4c0,-2.116 1.651,-3.853 3.732,-3.991c0.655,-2.338 2.783,-4.009 5.268,-4.009c2.072,0 3.957,1.187 4.885,3.016c2.302,0.196 4.115,2.132 4.115,4.484c0,2.481 -2.019,4.5 -4.5,4.5zM4,6c-1.103,0 -2,0.897 -2,2c0,1.103 0.897,2 2,2h9.5c1.379,0 2.5,-1.122 2.5,-2.5c0,-1.378 -1.121,-2.5 -2.5,-2.5h-0.985l-0.236,-0.665c-0.498,-1.397 -1.815,-2.335 -3.279,-2.335c-1.769,0 -3.252,1.337 -3.45,3.111l-0.1,0.889z"></path></g></g></g></svg><style>@media (prefers-color-scheme: light) { :root { filter: none; } }
@media (prefers-color-scheme: dark) { :root { filter: none; } }
</style></svg>